<?xml version="1.0" encoding="UTF-8" standalone="no"?>
<!-- Created with Inkscape (http://www.inkscape.org/) -->

<svg
   xmlns:dc="http://purl.org/dc/elements/1.1/"
   xmlns:cc="http://creativecommons.org/ns#"
   xmlns:rdf="http://www.w3.org/1999/02/22-rdf-syntax-ns#"
   xmlns:svg="http://www.w3.org/2000/svg"
   xmlns="http://www.w3.org/2000/svg"
   xmlns:sodipodi="http://sodipodi.sourceforge.net/DTD/sodipodi-0.dtd"
   xmlns:inkscape="http://www.inkscape.org/namespaces/inkscape"
   width="180"
   height="180"
   viewBox="0 0 47.624999 47.625001"
   version="1.1"
   id="svg8"
   inkscape:version="0.92.0 r15299"
   sodipodi:docname="timer.svg"
   inkscape:export-filename="D:\work\archerytimer\images\icon.png"
   inkscape:export-xdpi="96.177284"
   inkscape:export-ydpi="96.177284">
  <defs
     id="defs2" />
  <sodipodi:namedview
     id="base"
     pagecolor="#ffffff"
     bordercolor="#666666"
     borderopacity="1.0"
     inkscape:pageopacity="0.0"
     inkscape:pageshadow="2"
     inkscape:zoom="1.979899"
     inkscape:cx="110.63826"
     inkscape:cy="51.307076"
     inkscape:document-units="mm"
     inkscape:current-layer="layer1"
     showgrid="false"
     units="px"
     inkscape:window-width="1280"
     inkscape:window-height="737"
     inkscape:window-x="-8"
     inkscape:window-y="-8"
     inkscape:window-maximized="1" />
  <metadata
     id="metadata5">
    <rdf:RDF>
      <cc:Work
         rdf:about="">
        <dc:format>image/svg+xml</dc:format>
        <dc:type
           rdf:resource="http://purl.org/dc/dcmitype/StillImage" />
        <dc:title></dc:title>
      </cc:Work>
    </rdf:RDF>
  </metadata>
  <g
     inkscape:label="レイヤー 1"
     inkscape:groupmode="layer"
     id="layer1"
     transform="translate(0,-249.37496)">
    <rect
       style="opacity:1;fill:#434343;fill-opacity:1;stroke:none;stroke-width:0.23761122;stroke-linejoin:round;stroke-miterlimit:4;stroke-dasharray:0, 2.61372342;stroke-dashoffset:0;stroke-opacity:1"
       id="rect4487"
       width="47.537216"
       height="47.537216"
       x="5.426225e-007"
       y="249.4169"
       ry="7.1305828" />
    <path
       inkscape:connector-curvature="0"
       class="st0"
       d="m 37.141289,264.22274 -2.209533,1.49275 c 1.473234,2.18293 2.332539,4.80429 2.332983,7.63981 -4.49e-4,3.77746 -1.527593,7.1857 -4.002595,9.66338 -2.477103,2.47449 -5.885288,4.00158 -9.663373,4.00208 -3.778018,-4.4e-4 -7.186203,-1.52759 -9.662863,-4.00208 -2.475513,-2.47768 -4.0025946,-5.88586 -4.0025946,-9.66338 0,-3.77802 1.5270816,-7.18563 4.0025946,-9.66343 2.181909,-2.1802 5.086534,-3.623 8.329411,-3.93625 v 4.74656 h 2.666908 v -7.47931 h -1.333456 c -4.506218,-8.9e-4 -8.597493,1.83007 -11.548813,4.78362 -2.9536199,2.95139 -4.7841247,7.04267 -4.7835543,11.54881 -4.492e-4,4.50622 1.8300018,8.59693 4.7835543,11.54889 2.95132,2.95304 7.042595,4.7847 11.548813,4.78355 4.506221,10e-4 8.597491,-1.83051 11.548878,-4.78355 2.953553,-2.95196 4.784637,-7.04267 4.783551,-11.54889 0.0013,-3.37825 -1.028942,-6.52703 -2.789911,-9.13256 z"
       style="opacity:1;fill:#ffffff;stroke-width:0.06379855"
       id="path4" />
    <path
       inkscape:connector-curvature="0"
       class="st0"
       d="m 17.164115,264.6942 c -0.310511,0 -0.610171,0.11261 -0.843992,0.31657 -0.4797,0.41929 -0.579739,1.13664 -0.215381,1.69245 l 5.823914,7.81538 c 0.05984,0.0979 0.128297,0.19306 0.207724,0.28506 0.389939,0.44754 0.954429,0.7037 1.548331,0.7037 0.49597,0 0.975602,-0.17998 1.349783,-0.50624 0.85324,-0.74402 0.941919,-2.0443 0.196372,-2.89977 -0.07886,-0.0892 -0.164791,-0.17131 -0.221894,-0.21481 L 18.006,265.00746 c -0.233888,-0.2018 -0.532977,-0.31326 -0.841885,-0.31326 z"
       style="opacity:1;fill:#ffffff;stroke-width:0.06379855"
       id="path6" />
  </g>
</svg>
