<?xml version="1.0" encoding="utf-8"?>
<!-- Generator: Adobe Illustrator 16.2.0, SVG Export Plug-In . SVG Version: 6.00 Build 0)  -->
<!DOCTYPE svg PUBLIC "-//W3C//DTD SVG 1.1//EN" "http://www.w3.org/Graphics/SVG/1.1/DTD/svg11.dtd">
<svg version="1.1" id="Layer_1" xmlns="http://www.w3.org/2000/svg" xmlns:xlink="http://www.w3.org/1999/xlink" x="0px" y="0px"
width="154.748px" height="83.398px" viewBox="57.497 35.128 154.748 83.398"
enable-background="new 57.497 35.128 154.748 83.398" xml:space="preserve">
<g>
<g>
<path fill="#FFFFFF" d="M123.775,61.262c-2.802,0-5.075,2.308-5.075,5.152v20.14c0,2.847,2.273,5.153,5.075,5.153
c2.803,0,5.075-2.308,5.075-5.153v-20.14C128.85,63.569,126.578,61.262,123.775,61.262z M62.571,61.262
c-2.802,0-5.074,2.308-5.074,5.152v20.14c0,2.847,2.272,5.153,5.074,5.153c2.802,0,5.074-2.308,5.074-5.153v-20.14
C67.645,63.569,65.373,61.262,62.571,61.262z"/>
<path fill="#FFFFFF" d="M70.699,61.418v36.793c0,2.187,1.772,3.957,3.958,3.957h4.521v11.205c0,2.846,2.272,5.153,5.074,5.153
c2.803,0,5.074-2.309,5.074-5.153v-11.205h7.897v11.205c0,2.846,2.272,5.153,5.074,5.153c2.803,0,5.075-2.309,5.075-5.153v-11.205
h4.52c2.187,0,3.958-1.771,3.958-3.957V61.418H70.699z"/>
<path fill="#FFFFFF" d="M103.875,42.352l4.17-6.054c0.248-0.359,0.186-0.833-0.138-1.055c-0.324-0.223-0.787-0.112-1.034,0.248
l-4.332,6.289c-2.855-1.125-6.027-1.752-9.369-1.752c-3.342,0-6.513,0.627-9.369,1.752l-4.332-6.289
c-0.248-0.36-0.711-0.471-1.035-0.248c-0.324,0.223-0.385,0.695-0.137,1.055l4.17,6.054c-6.631,3.084-11.281,8.946-11.873,15.787
h45.15C115.157,51.297,110.507,45.436,103.875,42.352z M83.648,51.893c-1.379,0-2.498-1.117-2.498-2.497
c0-1.381,1.119-2.499,2.498-2.499c1.38,0,2.498,1.117,2.498,2.499C86.146,50.776,85.029,51.893,83.648,51.893z M103.01,51.893
c-1.379,0-2.498-1.117-2.498-2.497c0-1.381,1.119-2.499,2.498-2.499c1.379,0,2.498,1.117,2.498,2.499
C105.508,50.776,104.39,51.893,103.01,51.893z"/>
</g>
<g>
<g>
<g>
<path fill="#FFFFFF" d="M209.779,64.027h-20.875c3.746,2.875,6.223,7.358,6.223,12.457c0,4.046-1.896,7.446-4.086,10.493
c-3.739,5.206-12.656,22.309-12.656,22.309c0.34,0.006,0.665,0.051,1.009,0.051c18.142,0,32.851-14.707,32.851-32.849
C212.24,72.073,211.356,67.87,209.779,64.027z"/>
<path fill="#FFFFFF" d="M179.322,60.755c7.188-0.051,28.748-0.271,28.748-0.271c-5.623-10.047-16.345-16.852-28.68-16.852
c-10.286,0-19.461,4.733-25.48,12.133l10.035,17.821C165.301,66.308,171.651,60.809,179.322,60.755z"/>
<path fill="#FFFFFF" d="M179.389,92.22c-6.864,0-12.098-4.639-14.792-10.549c-2.712-5.945-12.952-22.717-12.952-22.717
c-3.214,5.077-5.104,11.075-5.104,17.529c0,16.478,12.145,30.083,27.963,32.447l10.209-17.701
C183.043,91.837,181.267,92.22,179.389,92.22z"/>
<circle fill="#FFFFFF" cx="179.389" cy="76.487" r="10.623"/>
</g>
</g>
</g>
</g>
</svg>