<?xml version="1.0" encoding="UTF-8" standalone="no"?>
<svg
   xmlns:dc="http://purl.org/dc/elements/1.1/"
   xmlns:cc="http://creativecommons.org/ns#"
   xmlns:rdf="http://www.w3.org/1999/02/22-rdf-syntax-ns#"
   xmlns:svg="http://www.w3.org/2000/svg"
   xmlns="http://www.w3.org/2000/svg"
   xmlns:sodipodi="http://sodipodi.sourceforge.net/DTD/sodipodi-0.dtd"
   xmlns:inkscape="http://www.inkscape.org/namespaces/inkscape"
   version="1.1"
   viewBox="0 0 44 44"
   enable-background="new 0 0 44 44"
   width="512px"
   height="512px"
   id="svg8"
   sodipodi:docname="chronometer.svg"
   inkscape:version="0.92.0 r15299">
  <metadata
     id="metadata14">
    <rdf:RDF>
      <cc:Work
         rdf:about="">
        <dc:format>image/svg+xml</dc:format>
        <dc:type
           rdf:resource="http://purl.org/dc/dcmitype/StillImage" />
        <dc:title></dc:title>
      </cc:Work>
    </rdf:RDF>
  </metadata>
  <defs
     id="defs12" />
  <sodipodi:namedview
     pagecolor="#ffffff"
     bordercolor="#666666"
     borderopacity="1"
     objecttolerance="10"
     gridtolerance="10"
     guidetolerance="10"
     inkscape:pageopacity="0"
     inkscape:pageshadow="2"
     inkscape:window-width="1280"
     inkscape:window-height="737"
     id="namedview10"
     showgrid="false"
     inkscape:zoom="0.4609375"
     inkscape:cx="-125.83051"
     inkscape:cy="256"
     inkscape:window-x="-8"
     inkscape:window-y="-8"
     inkscape:window-maximized="1"
     inkscape:current-layer="g6" />
  <g
     id="g6">
    <g
       id="g4514"
       transform="translate(0,-0.6875)">
      <path
         style="fill:#ffffff;fill-opacity:1;stroke-width:11.63636398"
         d="m 233.89062,104.72656 c -6.98181,0 -11.63671,4.6549 -11.63671,11.63672 V 128 c 0,2.32727 -2.32703,4.65472 -4.6543,5.81836 -58.18182,16.29091 -101.23633,69.81836 -101.23633,133.81836 0,76.8 62.83672,139.63672 139.63672,139.63672 76.8,0 139.63714,-62.83715 140.80078,-140.80078 0,-27.92728 -8.14616,-54.69169 -23.27344,-76.80078 -1.16363,-2.32728 -1.16321,-4.6532 1.16407,-6.98047 l 5.81836,-5.81836 c 4.65454,-4.65455 4.65454,-11.63647 0,-16.29102 l -16.29102,-16.29101 c -4.65455,-4.65455 -11.63647,-4.65455 -16.29102,0 l -5.81835,5.81836 c -1.16364,2.32727 -4.65515,2.32769 -6.98243,1.16406 -11.63636,-6.98182 -24.43675,-13.96417 -38.40039,-17.45508 -3.49091,-1.16364 -4.65429,-3.49109 -4.65429,-5.81836 v -11.63672 c 0,-6.98182 -4.6549,-11.63672 -11.63672,-11.63672 z M 256,174.54492 c 51.2,0 93.0918,41.8918 93.0918,93.0918 0,51.2 -41.8918,93.08984 -93.0918,93.08984 -51.2,0 -93.0918,-41.88984 -93.0918,-93.08984 0,-51.2 41.8918,-93.0918 93.0918,-93.0918 z m -11.63672,23.27344 c -6.98182,0 -11.63672,4.6549 -11.63672,11.63672 v 69.81836 c 0,6.98182 4.6549,11.63476 11.63672,11.63476 h 23.27344 c 6.98181,0 11.63672,-4.65294 11.63672,-11.63476 v -69.81836 c 0,-6.98182 -4.65491,-11.63672 -11.63672,-11.63672 z"
         transform="scale(0.0859375)"
         id="path4"
         inkscape:connector-curvature="0" />
    </g>
  </g>
</svg>
