<?xml version="1.0" encoding="iso-8859-1"?>
<!-- Generator: Adobe Illustrator 17.1.0, SVG Export Plug-In . SVG Version: 6.00 Build 0)  -->
<!DOCTYPE svg PUBLIC "-//W3C//DTD SVG 1.1//EN" "http://www.w3.org/Graphics/SVG/1.1/DTD/svg11.dtd">
<svg xmlns="http://www.w3.org/2000/svg" xmlns:xlink="http://www.w3.org/1999/xlink" version="1.1" id="Capa_1" x="0px" y="0px" viewBox="0 0 327.64 327.64" style="enable-background:new 0 0 327.64 327.64;" xml:space="preserve" width="512px" height="512px">
<path d="M259.134,93.06l4.059-4.059c2.387,1.182,5.028,1.814,7.735,1.814c4.999,0,9.765-2.146,13.075-5.887  c6.378-7.207,5.704-18.259-1.503-24.638l-16.245-14.378c-3.194-2.827-7.301-4.384-11.563-4.384c-4.999,0-9.765,2.146-13.075,5.887  c-3.09,3.491-4.636,7.977-4.352,12.63c0.204,3.36,1.358,6.51,3.291,9.168l-5.257,5.257c-16.781-10.336-35.953-17.146-56.478-19.397  v-9.798h0.362c12.482,0,22.638-10.155,22.638-22.638C201.82,10.155,191.665,0,179.182,0h-30.725  c-12.482,0-22.638,10.155-22.638,22.638c0,12.482,10.155,22.638,22.638,22.638h0.362v9.798  c-68.343,7.494-121.696,65.564-121.696,135.87c0,75.375,61.322,136.696,136.696,136.696c75.375,0,136.696-61.322,136.696-136.696  C300.516,152.604,284.644,117.907,259.134,93.06z M215.077,211.194h-31.466c-4.85,4.735-11.478,7.657-18.791,7.657  c-14.86,0-26.907-12.047-26.907-26.907c0-8.867,4.291-16.73,10.907-21.632v-55.26c0-8.284,6.716-15,15-15s15,6.716,15,15v53.911  c4.699,2.869,8.446,7.141,10.667,12.231h25.589c8.284,0,15,6.716,15,15S223.361,211.194,215.077,211.194z" fill="#FFFFFF"/>
<g>
</g>
<g>
</g>
<g>
</g>
<g>
</g>
<g>
</g>
<g>
</g>
<g>
</g>
<g>
</g>
<g>
</g>
<g>
</g>
<g>
</g>
<g>
</g>
<g>
</g>
<g>
</g>
<g>
</g>
</svg>
