<?xml version="1.0" encoding="utf-8"?>
<!-- Generator: Adobe Illustrator 16.2.0, SVG Export Plug-In . SVG Version: 6.00 Build 0)  -->
<!DOCTYPE svg PUBLIC "-//W3C//DTD SVG 1.1//EN" "http://www.w3.org/Graphics/SVG/1.1/DTD/svg11.dtd">
<svg version="1.1" id="レイヤー_1" xmlns="http://www.w3.org/2000/svg" xmlns:xlink="http://www.w3.org/1999/xlink" x="0px"
y="0px" width="166.65px" height="166.65px" viewBox="0 0 166.65 166.65" enable-background="new 0 0 166.65 166.65"
xml:space="preserve">
<g>
<path fill-rule="evenodd" clip-rule="evenodd" fill="#333333" d="M111.3,18.8L85.65,65.9h9.2L95,66.85v4.2
c-3.867-1.2-7.733-1.8-11.601-1.8c-4.1,0-7.75,0.533-10.95,1.6v-4l0.15-0.95h9.65l0.199-0.5l25.301-46.6h-9.7l-21.9,40.45h-0.8
c-1.1,0-2.184,0.267-3.25,0.8l0.15-0.15l3.399-6.3L56.8,18.8h-9.7l23.05,42.55c-1.6,1.634-2.399,3.467-2.399,5.5v5.65
c-4.4,1.933-8.483,4.666-12.25,8.199c-7.633,7.634-11.45,16.934-11.45,27.9c0,10.866,3.816,20.116,11.45,27.75
s16.933,11.45,27.9,11.45c10.867,0,20.117-3.816,27.75-11.45c7.634-7.634,11.45-16.884,11.45-27.75
c0-10.967-3.816-20.267-11.45-27.9c-3.566-3.433-7.45-6.066-11.649-7.899v-5.95c0-2.167-0.634-3.884-1.9-5.15L120.95,18.8H111.3z"
/>
<path fill-rule="evenodd" clip-rule="evenodd" fill="#333333" d="M109.7,101.35c-0.866-3.233-2.216-6.083-4.05-8.55l2.75-1.95
c2.134,3.033,3.684,6.267,4.65,9.7L109.7,101.35z"/>
<path fill-rule="evenodd" clip-rule="evenodd" fill="#333333" d="M110.65,110.85l3.4,0.35c-0.334,3.534-1.25,6.967-2.75,10.301
l-3.05-1.45C109.517,117.15,110.317,114.083,110.65,110.85z"/>
<path fill-rule="evenodd" clip-rule="evenodd" fill="#333333" d="M147.7,136.3c-1.699,2-3.517,3.983-5.449,5.95
c-11.2,11.166-24.017,18.517-38.45,22.05h-0.05c-6.467,1.533-13.284,2.316-20.45,2.35c-8.167-0.033-15.934-1.066-23.3-3.1
l-0.051-0.05c-1.1-0.301-2.2-0.634-3.3-1H56.6c-11.933-3.967-22.667-10.717-32.2-20.25c-2.733-2.733-5.216-5.551-7.45-8.45
c-0.1-0.066-0.167-0.15-0.2-0.25H16.7c-0.267-0.3-0.5-0.601-0.7-0.9C5.333,118.417,0,101.966,0,83.3C0,64.6,5.367,48.15,16.1,33.95
V33.9c1.467-1.967,3.05-3.883,4.75-5.75c0-0.033,0.017-0.05,0.05-0.05c1.133-1.267,2.3-2.5,3.5-3.7
c9.534-9.566,20.267-16.316,32.2-20.25C64.933,1.383,73.833,0,83.3,0c23.033,0,42.684,8.133,58.95,24.4
c16.233,16.233,24.366,35.867,24.399,58.9C166.617,103.567,160.3,121.234,147.7,136.3z"/>
<polygon fill-rule="evenodd" clip-rule="evenodd" fill="#333333" points="60.35,18.8 77.45,50.4 82.1,41.55 69.85,18.8 "/>
<path fill-rule="evenodd" clip-rule="evenodd" fill="#333333" d="M63.9,89.25c-2.166,2.166-4,4.75-5.5,7.75L55.35,95.7
c1.6-3.433,3.633-6.383,6.1-8.85L63.9,89.25z"/>
<path fill-rule="evenodd" clip-rule="evenodd" fill="#333333" d="M56,108.6c0,2.267,0.267,4.634,0.8,7.1l-3.25,0.95
c-0.633-2.566-0.95-5.25-0.95-8.05v-2.55L56,106.2V108.6z"/>
<path fill-rule="evenodd" clip-rule="evenodd" fill="#333333" d="M98.9,86.05c-2.8-1.834-5.5-3.134-8.1-3.9L90.35,82l0.8-3.2
l0.45,0.149c3.467,0.967,6.533,2.417,9.2,4.351L98.9,86.05z"/>
<path fill-rule="evenodd" clip-rule="evenodd" fill="#333333" d="M80.5,77.95l0.3,3.4c-1.8,0.233-3.517,0.55-5.15,0.95
c-1.5,0.434-2.833,0.916-4,1.45l-1.5-3.051l4.55-1.75C76.633,78.517,78.567,78.183,80.5,77.95z"/>
<path fill-rule="evenodd" clip-rule="evenodd" fill="#333333" d="M102.75,127.8l2.399,2.399v0.2
c-2.666,2.566-5.566,4.601-8.7,6.101L95,133.45c3-1.5,5.583-3.333,7.75-5.5V127.8z"/>
<path fill-rule="evenodd" clip-rule="evenodd" fill="#333333" d="M86,139.25l-2.75,0.149c-2.267,0-4.9-0.366-7.9-1.1l0.95-3.25
c2.267,0.633,4.583,0.95,6.95,0.95H83.4l2.4-0.15L86,139.25z"/>
<path fill-rule="evenodd" clip-rule="evenodd" fill="#333333" d="M61.65,130.4l-3.55-4.05l2.9-1.95
c0.533,0.867,1.55,2.05,3.05,3.55s2.684,2.517,3.55,3.051l-1.95,2.75C64.35,132.883,63.017,131.767,61.65,130.4z"/>
<path fill-rule="evenodd" clip-rule="evenodd" fill="#FFFFFF" d="M110.65,110.85c-0.333,3.233-1.133,6.3-2.399,9.2l3.05,1.45
c1.5-3.334,2.416-6.767,2.75-10.301L110.65,110.85z M109.7,101.35l3.351-0.8c-0.967-3.434-2.517-6.667-4.65-9.7l-2.75,1.95
C107.484,95.267,108.833,98.117,109.7,101.35z M111.3,18.8h9.649L97.6,61.7c1.267,1.267,1.9,2.983,1.9,5.15v5.95
c4.199,1.833,8.083,4.467,11.649,7.899c7.634,7.634,11.45,16.934,11.45,27.9c0,10.866-3.816,20.116-11.45,27.75
c-7.633,7.634-16.883,11.45-27.75,11.45c-10.967,0-20.267-3.816-27.9-11.45s-11.45-16.884-11.45-27.75
c0-10.967,3.816-20.267,11.45-27.9c3.767-3.533,7.85-6.267,12.25-8.199v-5.65c0-2.033,0.8-3.866,2.399-5.5L47.1,18.8h9.7
l18.85,34.8l-3.399,6.3l-0.15,0.15c1.066-0.533,2.15-0.8,3.25-0.8h0.8l21.9-40.45h9.7L82.45,65.4l-0.199,0.5H72.6l-0.15,0.95v4
c3.2-1.066,6.851-1.6,10.95-1.6c3.867,0,7.733,0.6,11.601,1.8v-4.2l-0.15-0.95h-9.2L111.3,18.8z M60.35,18.8h9.5L82.1,41.55
l-4.65,8.85L60.35,18.8z M61.65,130.4c1.367,1.367,2.7,2.483,4,3.351L67.6,131c-0.866-0.534-2.05-1.551-3.55-3.051
s-2.517-2.683-3.05-3.55l-2.9,1.95L61.65,130.4z M86,139.25l-0.2-3.4L83.4,136H83.25c-2.367,0-4.684-0.317-6.95-0.95l-0.95,3.25
c3,0.733,5.634,1.1,7.9,1.1L86,139.25z M102.75,127.8v0.149c-2.167,2.167-4.75,4-7.75,5.5l1.449,3.051
c3.134-1.5,6.034-3.534,8.7-6.101v-0.2L102.75,127.8z M80.5,77.95c-1.934,0.233-3.867,0.567-5.801,1l-4.55,1.75l1.5,3.051
c1.167-0.534,2.5-1.017,4-1.45c1.634-0.4,3.351-0.717,5.15-0.95L80.5,77.95z M98.9,86.05l1.9-2.75
c-2.667-1.934-5.733-3.384-9.2-4.351L91.15,78.8l-0.8,3.2l0.45,0.149C93.4,82.917,96.1,84.216,98.9,86.05z M56,108.6v-2.4
l-3.4-0.149v2.55c0,2.8,0.317,5.483,0.95,8.05l3.25-0.95C56.267,113.234,56,110.867,56,108.6z M63.9,89.25l-2.45-2.4
c-2.466,2.467-4.5,5.417-6.1,8.85L58.4,97C59.9,94,61.734,91.417,63.9,89.25z"/>
</g>
</svg>