<?xml version="1.0" encoding="UTF-8" standalone="no"?>
<!--?xml version="1.0" encoding="utf-8"?-->

<!-- Generator: Adobe Illustrator 18.0.0, SVG Export Plug-In . SVG Version: 6.00 Build 0)  -->

<svg
   xmlns:dc="http://purl.org/dc/elements/1.1/"
   xmlns:cc="http://creativecommons.org/ns#"
   xmlns:rdf="http://www.w3.org/1999/02/22-rdf-syntax-ns#"
   xmlns:svg="http://www.w3.org/2000/svg"
   xmlns="http://www.w3.org/2000/svg"
   xmlns:sodipodi="http://sodipodi.sourceforge.net/DTD/sodipodi-0.dtd"
   xmlns:inkscape="http://www.inkscape.org/namespaces/inkscape"
   version="1.1"
   id="_x32_"
   x="0px"
   y="0px"
   viewBox="0 0 512 512"
   style="width: 256px; height: 256px; opacity: 1;"
   xml:space="preserve"
   sodipodi:docname="plus.svg"
   inkscape:version="0.92.0 r15299"><metadata
   id="metadata15"><rdf:RDF><cc:Work
       rdf:about=""><dc:format>image/svg+xml</dc:format><dc:type
         rdf:resource="http://purl.org/dc/dcmitype/StillImage" /><dc:title></dc:title></cc:Work></rdf:RDF></metadata><defs
   id="defs13" /><sodipodi:namedview
   pagecolor="#ffffff"
   bordercolor="#666666"
   borderopacity="1"
   objecttolerance="10"
   gridtolerance="10"
   guidetolerance="10"
   inkscape:pageopacity="0"
   inkscape:pageshadow="2"
   inkscape:window-width="1280"
   inkscape:window-height="737"
   id="namedview11"
   showgrid="false"
   inkscape:zoom="0.4609375"
   inkscape:cx="-19.525424"
   inkscape:cy="256"
   inkscape:window-x="-8"
   inkscape:window-y="-8"
   inkscape:window-maximized="1"
   inkscape:current-layer="g8" />
<style
   type="text/css"
   id="style2">
	.st0{fill:#4B4B4B;}
</style>
<g
   id="g8">
	<path
   class="st0"
   d="M359.244,224.004h-59.988c-6.217,0-11.258-5.043-11.258-11.258v-59.992c0-6.215-5.039-11.254-11.256-11.254   h-41.486c-6.217,0-11.258,5.039-11.258,11.254v59.992c0,6.215-5.039,11.258-11.256,11.258h-59.988   c-6.219,0-11.258,5.039-11.258,11.258v41.484c0,6.215,5.039,11.258,11.258,11.258h59.988c6.217,0,11.256,5.039,11.256,11.258   v59.984c0,6.219,5.041,11.258,11.258,11.258h41.486c6.217,0,11.256-5.039,11.256-11.258v-59.984   c0-6.219,5.041-11.258,11.258-11.258h59.988c6.217,0,11.258-5.043,11.258-11.258v-41.484   C370.502,229.043,365.461,224.004,359.244,224.004z"
   style="fill:#ffffff;fill-opacity:1"
   id="path4" />
	
</g>
</svg>