<?xml version="1.0" encoding="utf-8"?>
<!-- Generator: Adobe Illustrator 16.2.0, SVG Export Plug-In . SVG Version: 6.00 Build 0)  -->
<!DOCTYPE svg PUBLIC "-//W3C//DTD SVG 1.1//EN" "http://www.w3.org/Graphics/SVG/1.1/DTD/svg11.dtd">
<svg version="1.1" id="レイヤー_1" xmlns="http://www.w3.org/2000/svg" xmlns:xlink="http://www.w3.org/1999/xlink" x="0px"
y="0px" width="166.65px" height="166.65px" viewBox="0 0 166.65 166.65" enable-background="new 0 0 166.65 166.65"
xml:space="preserve">
<g>
<path fill-rule="evenodd" clip-rule="evenodd" fill="#333333" d="M166.65,83.3c-0.033,20.267-6.35,37.933-18.95,53
c-1.7,2-3.517,3.983-5.45,5.95c-11.2,11.167-24.017,18.517-38.45,22.05h-0.05c-6.467,1.533-13.284,2.316-20.45,2.35
c-8.167-0.033-15.933-1.066-23.3-3.1l-0.05-0.05c-1.1-0.301-2.2-0.634-3.3-1H56.6c-11.933-3.967-22.667-10.717-32.2-20.25
c-2.733-2.733-5.217-5.55-7.45-8.45c-0.1-0.067-0.167-0.15-0.2-0.25H16.7c-0.267-0.3-0.5-0.6-0.7-0.9
C5.333,118.417,0,101.967,0,83.3c0-18.7,5.367-35.15,16.1-49.35V33.9c1.453-1.981,3.037-3.898,4.75-5.75
c0.016-0.018,0.032-0.034,0.05-0.05c1.117-1.283,2.283-2.516,3.5-3.7c9.533-9.566,20.267-16.316,32.2-20.25
C64.933,1.383,73.833,0,83.3,0c23.033,0,42.683,8.133,58.95,24.4C158.483,40.633,166.617,60.267,166.65,83.3z"/>
<path fill-rule="evenodd" clip-rule="evenodd" fill="#333333" d="M134.5,130.6v-19.4H96.25v-36H58V39.15H29.35
c-0.8,0.967-1.566,1.95-2.3,2.95H27c-8.934,11.867-13.383,25.6-13.35,41.2c-0.033,15.633,4.417,29.383,13.35,41.25
c0.033,0.033,0.066,0.083,0.1,0.15c0.067,0.066,0.133,0.133,0.2,0.2c0.067,0.1,0.133,0.2,0.2,0.3c1.966,2.533,4.15,5,6.55,7.4
c7.967,7.967,16.917,13.616,26.85,16.95l-0.05-0.05c0.967,0.3,1.934,0.6,2.9,0.899H63.7C69.867,152.133,76.4,153,83.3,153
c6.033,0,11.783-0.65,17.25-1.95c12-3,22.683-9.15,32.05-18.45C133.233,131.934,133.867,131.267,134.5,130.6z"/>
<polygon fill-rule="evenodd" clip-rule="evenodd" fill="#333333" points="40.3,46.1 45.05,46.1 45.05,70.3 39.6,70.3 39.6,51.05 
39.5,51.05 35.35,53.2 34.1,49.15 "/>
<path fill-rule="evenodd" clip-rule="evenodd" fill="#333333" d="M109.5,118.25c1.167-0.333,2.417-0.5,3.75-0.5
c1.6,0,2.933,0.283,4,0.85c1.1,0.533,1.933,1.25,2.5,2.15c0.533,0.9,0.8,1.9,0.8,3c0,1.233-0.35,2.333-1.05,3.3
c-0.7,0.933-1.684,1.667-2.95,2.2v0.05c0.867,0.2,1.667,0.583,2.4,1.15c0.7,0.533,1.267,1.2,1.7,2
c0.433,0.833,0.65,1.783,0.65,2.85c0,1.367-0.367,2.6-1.1,3.7c-0.7,1.1-1.733,1.983-3.1,2.65c-1.367,0.667-3,1-4.9,1
c-1.333,0-2.55-0.133-3.65-0.4c-1.067-0.267-1.917-0.6-2.55-1l1.15-4.25c0.5,0.3,1.167,0.583,2,0.85
c0.833,0.267,1.683,0.4,2.55,0.4c1.267-0.033,2.233-0.35,2.9-0.95c0.667-0.6,1-1.367,1-2.3c0-0.8-0.216-1.45-0.65-1.95
c-0.4-0.534-0.95-0.917-1.65-1.15c-0.667-0.267-1.4-0.4-2.2-0.4h-1.6v-3.9h1.45c0.6,0,1.2-0.1,1.8-0.3
c0.633-0.2,1.15-0.517,1.55-0.95s0.617-0.983,0.65-1.65c0-0.767-0.267-1.383-0.8-1.85c-0.5-0.433-1.267-0.667-2.3-0.7
c-0.767,0.034-1.517,0.167-2.25,0.4c-0.7,0.233-1.3,0.5-1.8,0.8l-1.05-4C107.417,118.917,108.333,118.55,109.5,118.25z"/>
<path fill-rule="evenodd" clip-rule="evenodd" fill="#333333" d="M75.7,85.75c-0.833,0.033-1.617,0.217-2.35,0.55
c-0.767,0.3-1.433,0.667-2,1.1l-1.45-4.1c0.767-0.567,1.767-1.05,3-1.45c1.2-0.4,2.5-0.6,3.9-0.6c1.8,0,3.3,0.333,4.5,1
c1.133,0.667,1.983,1.55,2.55,2.65c0.567,1.133,0.85,2.383,0.85,3.75c-0.033,1.4-0.316,2.717-0.85,3.95
c-0.533,1.2-1.233,2.35-2.1,3.45c-0.867,1.066-1.8,2.083-2.8,3.05l-2.05,1.95v0.05h8.2v4.7H69.65v-3.5l2.8-3.05
c1.4-1.433,2.6-2.733,3.6-3.9s1.75-2.25,2.25-3.25c0.567-1,0.85-1.983,0.85-2.95c0-0.966-0.283-1.767-0.85-2.4
S76.867,85.783,75.7,85.75z"/>
<path fill-rule="evenodd" clip-rule="evenodd" fill="#FFFFFF" d="M40.3,46.1l-6.2,3.05l1.25,4.05l4.15-2.15h0.1V70.3h5.45V46.1
H40.3z M134.5,130.6c-0.633,0.667-1.267,1.333-1.9,2c-9.367,9.3-20.05,15.45-32.05,18.45c-5.467,1.3-11.217,1.95-17.25,1.95
c-6.9,0-13.433-0.867-19.6-2.601h0.05c-0.967-0.3-1.934-0.6-2.9-0.899l0.05,0.05c-9.934-3.334-18.883-8.983-26.85-16.95
c-2.4-2.4-4.583-4.867-6.55-7.4c-0.067-0.1-0.133-0.2-0.2-0.3c-0.067-0.066-0.133-0.133-0.2-0.2c-0.033-0.067-0.066-0.117-0.1-0.15
c-8.934-11.867-13.383-25.617-13.35-41.25C13.617,67.7,18.066,53.967,27,42.1h0.05c0.733-1,1.5-1.983,2.3-2.95H58V75.2h38.25v36
h38.25V130.6z M75.7,85.75c1.167,0.033,2.033,0.367,2.6,1s0.85,1.434,0.85,2.4c0,0.967-0.283,1.95-0.85,2.95
c-0.5,1-1.25,2.083-2.25,3.25s-2.2,2.467-3.6,3.9l-2.8,3.05v3.5H85.1v-4.7h-8.2v-0.05l2.05-1.95c1-0.967,1.934-1.983,2.8-3.05
c0.867-1.1,1.566-2.25,2.1-3.45c0.534-1.233,0.817-2.55,0.85-3.95c0-1.367-0.283-2.617-0.85-3.75c-0.566-1.1-1.417-1.983-2.55-2.65
c-1.2-0.667-2.7-1-4.5-1c-1.4,0-2.7,0.2-3.9,0.6c-1.233,0.4-2.233,0.883-3,1.45l1.45,4.1c0.567-0.433,1.233-0.8,2-1.1
C74.083,85.967,74.867,85.783,75.7,85.75z M109.5,118.25c-1.167,0.3-2.083,0.667-2.75,1.1l1.05,4c0.5-0.3,1.1-0.567,1.8-0.8
c0.733-0.233,1.483-0.367,2.25-0.4c1.034,0.034,1.8,0.267,2.3,0.7c0.533,0.467,0.8,1.083,0.8,1.85
c-0.033,0.667-0.25,1.217-0.65,1.65s-0.917,0.75-1.55,0.95c-0.6,0.2-1.2,0.3-1.8,0.3h-1.45v3.9h1.6c0.8,0,1.534,0.133,2.2,0.4
c0.7,0.233,1.25,0.617,1.65,1.15c0.434,0.5,0.65,1.15,0.65,1.95c0,0.934-0.333,1.7-1,2.3c-0.667,0.6-1.633,0.917-2.9,0.95
c-0.867,0-1.717-0.133-2.55-0.4c-0.833-0.267-1.5-0.55-2-0.85l-1.15,4.25c0.633,0.4,1.483,0.733,2.55,1
c1.1,0.267,2.317,0.4,3.65,0.4c1.9,0,3.533-0.333,4.9-1c1.367-0.667,2.4-1.55,3.1-2.65c0.733-1.1,1.1-2.333,1.1-3.7
c0-1.067-0.217-2.017-0.65-2.85c-0.434-0.8-1-1.467-1.7-2c-0.733-0.567-1.533-0.95-2.4-1.15v-0.05c1.267-0.533,2.25-1.267,2.95-2.2
c0.7-0.967,1.05-2.067,1.05-3.3c0-1.1-0.267-2.1-0.8-3c-0.567-0.9-1.4-1.617-2.5-2.15c-1.067-0.567-2.4-0.85-4-0.85
C111.917,117.75,110.667,117.917,109.5,118.25z"/>

<polyline fill-rule="evenodd" clip-rule="evenodd" fill="none" stroke="#333333" stroke-linecap="round" stroke-linejoin="round" stroke-miterlimit="3" points="
29.35,39.15 58,39.15 58,75.2 96.25,75.2 96.25,111.2 134.5,111.2 134.5,130.6 "/>
</g>
</svg>